<?xml version="1.0" standalone="no"?>
<!DOCTYPE svg PUBLIC "-//W3C//DTD SVG 20010904//EN"
 "http://www.w3.org/TR/2001/REC-SVG-20010904/DTD/svg10.dtd">
<svg version="1.0" xmlns="http://www.w3.org/2000/svg"
 width="1798.000000pt" height="1798.000000pt" viewBox="0 0 1798.000000 1798.000000"
 preserveAspectRatio="xMidYMid meet">
<metadata>
Created by potrace 1.14, written by Peter Selinger 2001-2017
</metadata>
<g transform="translate(0.000000,1798.000000) scale(0.100000,-0.100000)"
fill="#000000" stroke="none">
<path d="M3185 10058 l0 -1613 191 -3 c176 -2 192 -1 196 15 2 10 3 394 2 853
-1 459 0 842 3 852 5 22 154 120 272 178 162 81 263 108 405 108 107 0 178
-13 252 -49 125 -59 190 -174 210 -369 4 -36 8 -74 9 -85 1 -11 3 -354 4 -762
l1 -743 195 0 c149 0 195 3 196 13 4 65 0 1570 -5 1624 -27 326 -168 565 -394
669 -107 49 -204 68 -352 68 -160 1 -206 -5 -322 -44 -140 -47 -297 -134 -438
-242 l-35 -27 0 582 0 582 -195 3 -196 2 1 -1612z"/>
<path d="M15130 10015 l0 -1615 195 0 195 0 0 73 c1 39 1 213 1 386 l0 315 57
54 c31 30 88 84 125 121 l68 66 62 -66 c34 -36 100 -108 147 -159 47 -52 92
-101 100 -110 8 -9 60 -65 115 -126 55 -60 102 -111 105 -114 3 -3 50 -54 105
-115 55 -60 107 -117 115 -125 8 -8 53 -57 99 -107 l83 -93 261 0 c248 0 259
1 241 18 -10 9 -69 71 -129 137 -60 66 -121 132 -135 146 -14 14 -72 77 -130
140 -58 62 -114 123 -125 135 -17 18 -159 171 -245 264 -14 15 -70 76 -125
135 -55 59 -108 117 -118 129 -10 11 -43 46 -73 78 -30 31 -54 60 -54 65 0 5
239 247 530 537 292 290 530 529 530 532 0 2 -109 4 -242 4 l-242 0 -74 -77
c-64 -67 -194 -201 -667 -688 -44 -45 -146 -150 -227 -234 -81 -83 -150 -151
-152 -151 -3 0 -5 417 -5 928 0 510 -1 973 -1 1030 l0 102 -195 0 -195 0 0
-1615z"/>
<path d="M630 11345 l0 -185 477 -2 478 -3 0 -1355 0 -1355 205 0 205 0 0
1355 0 1355 553 3 552 2 0 185 0 185 -1235 0 -1235 0 0 -185z"/>
<path d="M8155 9945 l0 -1546 640 2 c352 1 672 5 710 10 129 15 160 20 221 34
200 46 386 148 517 282 192 198 274 471 231 770 -47 319 -259 552 -584 642
-74 21 -94 31 -74 38 42 15 176 118 234 180 118 127 170 263 170 448 0 293
-137 489 -419 599 -186 74 -296 83 -1036 85 l-610 2 0 -1546z m1293 1176 c183
-33 288 -112 327 -245 33 -111 14 -310 -37 -395 -66 -111 -186 -183 -358 -217
-60 -11 -802 -17 -809 -6 -5 8 -7 863 -2 881 2 9 822 -8 879 -18z m47 -1232
c161 -14 245 -37 341 -95 123 -74 188 -169 210 -306 12 -75 11 -229 -1 -292
-34 -182 -180 -333 -377 -390 -146 -43 -242 -50 -688 -51 l-414 0 -1 565 c0
311 1 569 3 573 5 10 805 7 927 -4z"/>
<path d="M6328 10805 c-337 -53 -618 -255 -772 -555 -98 -192 -137 -365 -142
-630 -1 -102 2 -210 7 -240 5 -30 11 -70 14 -87 55 -346 256 -621 564 -774
173 -85 356 -122 611 -123 238 -1 311 9 525 70 104 31 304 103 323 117 18 14
18 427 -1 427 -7 0 -29 -14 -49 -30 -48 -40 -229 -129 -343 -170 -203 -72
-437 -97 -619 -64 -400 70 -622 343 -640 784 l-1 25 855 3 856 2 -3 178 c-4
338 -58 544 -188 727 -129 180 -310 288 -570 340 -66 14 -341 13 -427 0z m387
-325 c220 -56 346 -193 402 -435 2 -11 7 -57 11 -102 l8 -83 -664 0 -663 0 5
49 c8 77 55 207 101 277 105 164 246 261 435 299 79 15 295 13 365 -5z"/>
<path d="M11348 10775 c-2 -2 -32 -6 -68 -9 -101 -8 -220 -28 -407 -67 -29 -5
-54 -9 -55 -8 -2 1 -13 -3 -25 -10 -23 -12 -23 -15 -23 -206 0 -107 3 -195 8
-195 4 0 54 16 112 35 158 54 331 96 460 113 105 13 360 7 450 -12 156 -32
258 -104 308 -216 26 -59 33 -89 39 -182 l5 -78 -29 -1 c-15 0 -46 -2 -68 -4
-22 -1 -87 -6 -145 -9 -58 -4 -123 -8 -145 -11 -22 -2 -69 -6 -105 -10 -36 -3
-78 -7 -95 -9 -16 -2 -57 -7 -90 -11 -91 -10 -283 -52 -361 -79 -325 -113
-498 -301 -540 -586 -3 -19 -5 -82 -5 -140 -1 -212 62 -374 201 -516 94 -97
209 -164 342 -201 90 -25 352 -24 463 1 172 39 306 101 470 216 44 31 85 60
92 63 8 5 11 -21 11 -100 0 -60 1 -116 1 -125 1 -17 17 -18 194 -18 l192 0 -1
843 c-1 463 -4 864 -8 892 -33 242 -158 426 -361 528 -77 39 -210 81 -295 92
-30 4 -64 10 -75 12 -22 6 -442 13 -447 8z m800 -1481 l0 -323 -85 -57 c-126
-84 -257 -149 -358 -180 -76 -22 -112 -27 -229 -29 -205 -4 -327 33 -413 123
-64 69 -88 143 -88 277 0 100 3 116 29 173 68 148 249 247 521 287 23 3 50 7
60 9 36 7 175 19 355 31 63 4 116 8 118 10 2 2 23 3 46 2 l44 -1 0 -322z"/>
<path d="M13877 10769 c-31 -5 -76 -14 -100 -20 -23 -7 -46 -13 -52 -15 -73
-16 -269 -119 -380 -199 -49 -36 -92 -65 -95 -65 -3 0 -5 55 -5 123 l0 122
-196 3 -195 2 0 -1160 0 -1160 195 0 196 0 0 867 0 866 80 54 c268 181 493
248 712 214 208 -33 308 -140 343 -366 19 -127 22 -229 22 -921 l1 -714 193 0
194 0 0 108 c3 596 0 1525 -5 1557 -6 42 -21 124 -29 164 -10 46 -39 126 -64
176 -124 248 -352 375 -669 372 -48 0 -114 -4 -146 -8z"/>
<path d="M1889 7915 c-200 -52 -315 -219 -323 -467 -5 -168 44 -315 135 -407
48 -48 125 -93 185 -107 54 -12 205 -12 254 1 206 54 322 231 321 490 0 270
-125 449 -343 494 -67 14 -165 12 -229 -4z m271 -131 c118 -64 173 -193 166
-384 -5 -111 -24 -179 -69 -246 -79 -119 -251 -158 -388 -89 -113 58 -169 180
-169 369 0 139 41 249 117 316 58 50 117 68 215 65 62 -3 87 -9 128 -31z"/>
<path d="M3200 7425 l0 -485 65 0 65 0 0 235 0 235 210 0 210 0 0 55 0 55
-210 0 -210 0 0 140 0 140 244 0 244 0 0 55 -1 55 -308 0 -309 0 0 -485z"/>
<path d="M5490 7425 l0 -485 319 0 318 0 2 55 1 55 -255 0 -254 0 -3 163 c-2
89 -2 172 0 185 l3 22 252 0 252 0 3 55 2 55 -255 0 -255 0 0 135 0 135 254 0
255 0 0 55 0 55 -320 0 -319 0 0 -485z"/>
<path d="M6860 7425 l0 -485 305 0 305 0 0 55 0 55 -240 0 -240 0 0 430 0 430
-65 0 -65 0 0 -485z"/>
<path d="M8134 7428 l1 -483 63 -3 62 -3 1 78 c0 43 0 117 0 164 l-1 86 50 54
c27 29 51 51 52 49 7 -9 82 -96 148 -170 37 -41 104 -117 149 -167 l82 -93 85
0 c81 0 85 1 68 18 -37 36 -434 491 -434 497 0 3 12 18 28 33 28 29 278 293
351 372 l42 45 -73 3 -73 3 -75 -79 c-41 -43 -122 -130 -180 -193 -58 -62
-131 -141 -162 -174 l-58 -60 1 210 c0 116 0 229 0 253 l-1 42 -64 0 -63 0 1
-482z"/>
<path d="M10580 7425 l0 -485 65 0 65 0 0 195 0 195 90 0 90 0 161 -195 162
-195 84 0 85 0 -84 97 c-45 54 -114 134 -152 178 -37 44 -81 97 -98 117 l-29
37 39 20 c194 99 209 386 24 480 -60 31 -144 41 -329 41 l-173 0 0 -485z m395
359 c21 -7 52 -26 68 -42 27 -27 30 -37 31 -98 1 -89 -23 -139 -85 -174 -38
-21 -60 -25 -161 -28 l-118 -4 0 181 0 182 113 -2 c64 -1 130 -7 152 -15z"/>
<path d="M11990 7860 l0 -50 63 0 62 0 0 -385 0 -385 -62 0 -63 0 0 -50 0 -50
190 0 190 0 0 50 0 50 -63 0 -63 0 1 385 0 385 62 0 63 0 0 50 0 50 -190 0
-190 0 0 -50z"/>
<path d="M13010 7906 c0 -4 311 -867 334 -926 l14 -35 87 0 87 0 20 55 c11 30
35 96 53 145 18 50 63 173 100 275 37 102 91 252 121 333 30 81 54 150 54 152
0 3 -29 5 -65 5 -44 0 -67 -4 -70 -12 -2 -7 -26 -76 -53 -153 -27 -77 -91
-257 -142 -400 -78 -220 -110 -300 -110 -274 0 7 -72 213 -175 499 -42 118
-86 243 -97 278 l-21 62 -68 0 c-38 0 -69 -2 -69 -4z"/>
<path d="M14560 7425 l0 -485 318 0 319 0 0 55 0 55 -254 0 -253 0 0 185 0
185 254 0 253 0 0 55 -1 55 -253 0 -253 0 0 135 0 135 255 0 254 0 -2 53 -2
52 -318 3 -317 2 0 -485z"/>
<path d="M15930 7425 l0 -485 65 0 65 0 0 195 0 195 90 0 90 0 101 -122 c55
-68 111 -134 123 -148 11 -14 39 -46 60 -72 l38 -48 84 0 84 0 -77 93 c-43 50
-80 94 -83 97 -3 3 -30 34 -60 70 -30 36 -57 67 -60 70 -3 3 -22 25 -43 48
l-39 44 55 36 c100 67 140 138 139 250 -1 71 -25 133 -68 175 -69 69 -140 85
-379 87 l-185 1 0 -486z m419 350 c54 -32 76 -69 78 -132 2 -70 -11 -105 -53
-147 -42 -42 -85 -53 -213 -55 l-101 -2 0 182 0 181 128 -4 c104 -3 134 -7
161 -23z"/>
</g>
</svg>
